<?xml version="1.0" encoding="UTF-8"?><svg id="Layer_2" xmlns="http://www.w3.org/2000/svg" viewBox="0 0 1414 1444.5"><defs><style>.cls-1{fill:#aed0ea;}.cls-2{fill:#3489ca;}</style></defs><g id="Layer_1-2"><path class="cls-2" d="M368,376h891c85.55,0,155,69.45,155,155h0c0,85.55-69.45,155-155,155H368v-310h0Z"/><path class="cls-1" d="M0,757h891c85.55,0,155,69.45,155,155h0c0,85.55-69.45,155-155,155H0v-310h0Z" transform="translate(1046 1824) rotate(180)"/><path class="cls-1" d="M888.5,0h0c84.72,0,153.5,68.78,153.5,153.5v153.5h-307v-153.5C735,68.78,803.78,0,888.5,0Z"/><path class="cls-2" d="M522,1137.5h0c84.72,0,153.5,68.78,153.5,153.5v153.5h-307v-153.5c0-84.72,68.78-153.5,153.5-153.5Z" transform="translate(1044 2582) rotate(180)"/></g></svg>