<?xml version="1.0" encoding="UTF-8"?><svg id="Layer_2" xmlns="http://www.w3.org/2000/svg" viewBox="0 0 4765.99 1444.5"><defs><style>.cls-1{fill:#fff;}</style></defs><g id="Layer_1-2"><path class="cls-1" d="M368,376h891c85.55,0,155,69.45,155,155h0c0,85.55-69.45,155-155,155H368v-310h0Z"/><path class="cls-1" d="M0,757h891c85.55,0,155,69.45,155,155h0c0,85.55-69.45,155-155,155H0v-310H0Z" transform="translate(1046 1824) rotate(180)"/><path class="cls-1" d="M888.5,0h0c84.72,0,153.5,68.78,153.5,153.5v153.5h-307v-153.5C735,68.78,803.78,0,888.5,0Z"/><path class="cls-1" d="M522,1137.5h0c84.72,0,153.5,68.78,153.5,153.5v153.5h-307v-153.5c0-84.72,68.78-153.5,153.5-153.5Z" transform="translate(1044 2582) rotate(180)"/><path class="cls-1" d="M1590.2,690.31v-.96c0-94.17,72.66-173.04,175.42-173.04s174.47,77.91,174.47,172.08v.96c0,94.17-72.66,173.04-175.42,173.04s-174.47-77.91-174.47-172.08ZM1878.43,690.31v-.96c0-65.01-47.32-119.02-113.76-119.02s-112.81,53.06-112.81,118.07v.96c0,65.01,47.32,118.54,113.76,118.54s112.81-52.58,112.81-117.59Z"/><path class="cls-1" d="M2004.62,630.56c0-16.25,12.43-29.16,28.68-29.16s29.16,12.91,29.16,29.16v15.77c18.64-26.29,44.93-47.32,86.04-47.32,59.27,0,117.11,46.84,117.11,130.97v.96c0,83.65-57.36,130.97-117.11,130.97-42.06,0-68.35-21.03-86.04-44.45v89.38c0,16.25-12.91,28.68-29.16,28.68s-28.68-12.43-28.68-28.68v-276.28ZM2206.82,730.94v-.96c0-48.76-32.98-80.78-72.18-80.78s-73.61,32.5-73.61,80.78v.96c0,48.28,34.42,80.78,73.61,80.78s72.18-31.07,72.18-80.78Z"/><path class="cls-1" d="M2441.03,862.39c-73.13,0-129.54-53.06-129.54-130.97v-.96c0-72.18,51.15-131.45,123.32-131.45,80.3,0,119.98,65.96,119.98,124.28,0,16.25-12.43,27.72-27.25,27.72h-158.22c6.21,41.11,35.37,64.05,72.66,64.05,24.38,0,43.5-8.6,59.75-21.99,4.3-3.35,8.13-5.26,14.82-5.26,12.91,0,22.94,10.04,22.94,23.42,0,7.17-3.35,13.38-7.65,17.69-22.94,20.55-51.62,33.46-90.82,33.46ZM2498.39,712.77c-3.82-37.28-25.81-66.44-64.05-66.44-35.37,0-60.23,27.25-65.49,66.44h129.54Z"/><path class="cls-1" d="M2614.06,630.56c0-16.25,12.43-29.16,28.68-29.16s29.16,12.91,29.16,29.16v12.43c16.25-23.42,39.67-43.98,78.87-43.98,56.88,0,89.86,38.24,89.86,96.56v134.79c0,16.25-12.43,28.68-28.68,28.68s-29.16-12.43-29.16-28.68v-117.11c0-39.2-19.6-61.66-54.01-61.66s-56.88,23.42-56.88,62.62v116.15c0,16.25-12.91,28.68-29.16,28.68s-28.68-12.43-28.68-28.68v-199.8Z"/><path class="cls-1" d="M3142.72,576.54h-81.26c-15.3,0-27.25-12.43-27.25-27.25s11.95-27.25,27.25-27.25h222.27c14.82,0,26.77,12.43,26.77,27.25s-11.95,27.25-26.77,27.25h-81.74v253.34c0,16.25-13.38,29.16-29.64,29.16s-29.64-12.91-29.64-29.16v-253.34Z"/><path class="cls-1" d="M3292.33,784v-.96c0-54.49,42.54-81.26,104.2-81.26,28.2,0,48.28,4.3,67.88,10.52v-6.21c0-35.85-21.99-54.97-62.62-54.97-21.99,0-40.15,3.82-55.93,10.04-3.35.96-6.21,1.43-9.08,1.43-13.38,0-24.38-10.52-24.38-23.9,0-10.52,7.17-19.6,15.77-22.94,23.9-9.08,48.28-14.82,81.26-14.82,37.76,0,65.96,10.04,83.65,28.2,18.64,18.16,27.25,44.93,27.25,77.91v124.28c0,15.77-12.43,27.72-28.2,27.72-16.73,0-28.2-11.47-28.2-24.38v-9.56c-17.21,20.55-43.5,36.81-82.21,36.81-47.32,0-89.39-27.25-89.39-77.91ZM3465.37,765.83v-17.21c-14.82-5.74-34.42-10.04-57.36-10.04-37.28,0-59.27,15.77-59.27,42.06v.96c0,24.38,21.51,38.24,49.23,38.24,38.24,0,67.4-21.99,67.4-54.01Z"/><path class="cls-1" d="M3589.65,630.56c0-16.25,12.43-29.16,28.68-29.16s29.16,12.91,29.16,29.16v25.81c13.38-31.55,38.24-55.45,63.57-55.45,18.16,0,28.68,11.95,28.68,28.68,0,15.3-10.04,25.33-22.94,27.72-41.11,7.17-69.31,38.72-69.31,98.47v74.57c0,15.77-12.91,28.68-29.16,28.68s-28.68-12.43-28.68-28.68v-199.8Z"/><path class="cls-1" d="M3794.71,911.62c-10.04-3.82-16.25-11.95-16.25-22.94,0-12.91,10.99-23.9,24.38-23.9,4.3,0,7.65.96,10.52,2.39,22.94,12.91,48.28,20.08,77.44,20.08,51.62,0,79.83-26.77,79.83-77.44v-19.6c-21.03,27.25-47.32,46.37-88.91,46.37-59.27,0-114.72-43.98-114.72-118.06v-.96c0-74.57,55.93-118.54,114.72-118.54,42.54,0,68.83,19.6,88.43,43.02v-11.95c0-15.77,12.91-28.68,28.68-28.68s29.16,12.91,29.16,29.16v174.47c0,42.54-10.99,74.09-32.03,95.12-22.94,22.94-58.32,33.94-103.72,33.94-35.37,0-66.92-7.65-97.51-22.47ZM3971.09,718.03v-.96c0-41.11-33.94-69.31-74.09-69.31s-71.7,27.72-71.7,69.31v.96c0,41.11,32.03,69.31,71.7,69.31s74.09-28.2,74.09-69.31Z"/><path class="cls-1" d="M4216.3,862.39c-73.13,0-129.54-53.06-129.54-130.97v-.96c0-72.18,51.15-131.45,123.32-131.45,80.3,0,119.98,65.96,119.98,124.28,0,16.25-12.43,27.72-27.25,27.72h-158.22c6.21,41.11,35.37,64.05,72.66,64.05,24.38,0,43.5-8.6,59.75-21.99,4.3-3.35,8.13-5.26,14.82-5.26,12.91,0,22.94,10.04,22.94,23.42,0,7.17-3.35,13.38-7.65,17.69-22.94,20.55-51.62,33.46-90.82,33.46ZM4273.66,712.77c-3.82-37.28-25.81-66.44-64.05-66.44-35.37,0-60.23,27.25-65.49,66.44h129.54Z"/><path class="cls-1" d="M4401.28,786.86v-132.88h-9.56c-13.86,0-24.86-10.99-24.86-24.86s10.99-24.86,24.86-24.86h9.56v-43.02c0-15.77,12.91-28.68,29.16-28.68s28.68,12.91,28.68,28.68v43.02h45.41c13.86,0,25.33,10.99,25.33,24.86s-11.47,24.86-25.33,24.86h-45.41v123.8c0,22.47,11.47,31.55,31.07,31.55,6.69,0,12.43-1.43,14.34-1.43,12.91,0,24.38,10.52,24.38,23.9,0,10.52-7.17,19.12-15.29,22.47-12.43,4.3-24.38,6.69-39.67,6.69-42.54,0-72.66-18.64-72.66-74.09Z"/><path class="cls-1" d="M4576.22,831.32c-6.21-3.35-10.99-10.52-10.99-20.08,0-12.91,10.04-23.42,23.42-23.42,4.78,0,9.08,1.43,12.43,3.35,24.38,16.25,49.71,24.38,72.66,24.38,24.86,0,39.2-10.52,39.2-27.25v-.96c0-19.6-26.77-26.29-56.4-35.37-37.28-10.52-78.87-25.81-78.87-74.09v-.96c0-47.8,39.67-76.96,89.86-76.96,26.77,0,54.97,7.65,79.35,20.55,8.13,4.3,13.86,11.95,13.86,21.99,0,13.38-10.52,23.42-23.9,23.42-4.78,0-7.65-.96-11.47-2.87-20.55-10.52-41.59-17.21-59.27-17.21-22.47,0-35.37,10.52-35.37,24.86v.96c0,18.64,27.25,26.29,56.88,35.85,36.81,11.47,78.39,28.2,78.39,73.61v.96c0,53.06-41.11,79.35-93.69,79.35-32.03,0-66.92-10.04-96.08-30.11Z"/></g></svg>